<!DOCTYPE svg PUBLIC "-//W3C//DTD SVG 1.1//EN" "https://www.w3.org/Graphics/SVG/1.1/DTD/svg11.dtd"><svg xmlns="http://www.w3.org/2000/svg" id="sfn-svg" class="sfn-workflow-graph" width="583" height="582">
    
    
<g transform="translate(14.5,21.328125)"><g class="nodes"><g class="node-container" transform="translate(281.951171875,20.5)"><g class="node anchor"><circle class="shape" x="-19.828125" y="-10.5" r="29.828125"/><text class="label"><tspan xml:space="preserve" text-anchor="middle" alignment-baseline="central">Start</tspan></text></g></g><g class="node-container" transform="translate(281.951171875,522.5)"><g class="node anchor"><circle class="shape" x="-15.21875" y="-10.5" r="25.21875"/><text class="label"><tspan xml:space="preserve" text-anchor="middle" alignment-baseline="central">End</tspan></text></g></g><g class="node-container" transform="translate(281.951171875,86.5)"><g class="node state Task NotYetStarted"><rect class="shape" rx="5" ry="5" x="-82.390625" y="-20.5" width="164.78125" height="41"/><text class="label"><tspan xml:space="preserve" text-anchor="middle" alignment-baseline="central">Get Target Images</tspan></text></g></g><g class="node-container" transform="translate(281.951171875,238.5)"><g class="node state Map NotYetStarted Container" transform="translate(-274.451171875,-106.5)"><rect class="shape" rx="5" ry="5" x="-10" y="-10" width="546.90234375" height="211"/><rect class="shape" rx="5" ry="5" x="-5" y="-5" width="547.90234375" height="212"/><rect class="shape" rx="5" ry="5" x="0" y="0" width="548.90234375" height="213"/><g class="branches" transform="translate(20,20)"><g class="branch" transform="translate(0,0)"><g class="nodes"><g class="node-container" transform="translate(280.6171875,20.5)"><g class="node state Task NotYetStarted"><rect class="shape" rx="5" ry="5" x="-92.2890625" y="-20.5" width="184.578125" height="41"/><text class="label"><tspan xml:space="preserve" text-anchor="middle" alignment-baseline="central">CompareImagesStep</tspan></text></g></g><g class="node-container" transform="translate(161.58984375,86.5)"><g class="node state Choice NotYetStarted"><rect class="shape" rx="5" ry="5" x="-88.796875" y="-20.5" width="177.59375" height="41"/><text class="label"><tspan xml:space="preserve" text-anchor="middle" alignment-baseline="central">CheckIfMatchFound</tspan></text></g></g><g class="node-container" transform="translate(399.64453125,86.5)"><g class="node state Fail NotYetStarted"><rect class="shape" rx="5" ry="5" x="-109.2578125" y="-20.5" width="218.515625" height="41"/><text class="label"><tspan xml:space="preserve" text-anchor="middle" alignment-baseline="central">ProcessTaskErrorFallback</tspan></text></g></g><g class="node-container" transform="translate(85.390625,152.5)"><g class="node state Task NotYetStarted"><rect class="shape" rx="5" ry="5" x="-85.390625" y="-20.5" width="170.78125" height="41"/><text class="label"><tspan xml:space="preserve" text-anchor="middle" alignment-baseline="central">Record Transaction</tspan></text></g></g><g class="node-container" transform="translate(237.7890625,152.5)"><g class="node state Succeed NotYetStarted"><rect class="shape" rx="5" ry="5" x="-27.0078125" y="-20.5" width="54.015625" height="41"/><text class="label"><tspan xml:space="preserve" text-anchor="middle" alignment-baseline="central">Skip</tspan></text></g></g></g><g class="edges"><g class="edge"><path class="path" marker-end="url(#arrowhead11)" d="M206.6759588068182,41L199.16160629734847,43.08333333333333C191.64725378787878,45.166666666666664,176.61854876893938,49.33333333333333,169.1041962594697,53.5C161.58984375,57.666666666666664,161.58984375,61.83333333333333,161.58984375,63.916666666666664L161.58984375,66" style="fill: none;"/><defs><marker id="arrowhead11" viewBox="0 0 10 10" refX="9" refY="5" markerUnits="strokeWidth" markerWidth="8" markerHeight="6" orient="auto"><path d="M 0 0 L 10 5 L 0 10 z"/></marker></defs></g><g class="edge"><path class="path" marker-end="url(#arrowhead12)" d="M354.5584161931818,41L362.0727687026515,43.08333333333333C369.5871212121212,45.166666666666664,384.6158262310606,49.33333333333333,392.1301787405303,53.5C399.64453125,57.666666666666664,399.64453125,61.83333333333333,399.64453125,63.916666666666664L399.64453125,66" style="fill: none;"/><defs><marker id="arrowhead12" viewBox="0 0 10 10" refX="9" refY="5" markerUnits="strokeWidth" markerWidth="8" markerHeight="6" orient="auto"><path d="M 0 0 L 10 5 L 0 10 z"/></marker></defs></g><g class="edge"><path class="path" marker-end="url(#arrowhead13)" d="M114.25396543560606,107L109.44340869633838,109.08333333333331C104.6328519570707,111.16666666666666,95.01173847853535,115.33333333333331,90.20118173926767,119.49999999999999C85.390625,123.66666666666666,85.390625,127.83333333333333,85.39062499999999,129.91666666666666L85.390625,132" style="fill: none;"/><defs><marker id="arrowhead13" viewBox="0 0 10 10" refX="9" refY="5" markerUnits="strokeWidth" markerWidth="8" markerHeight="6" orient="auto"><path d="M 0 0 L 10 5 L 0 10 z"/></marker></defs></g><g class="edge"><path class="path" marker-end="url(#arrowhead14)" d="M208.92572206439394,107L213.7362788036616,109.08333333333331C218.54683554292927,111.16666666666666,228.16794902146464,115.33333333333331,232.9785057607323,119.49999999999999C237.7890625,123.66666666666666,237.7890625,127.83333333333333,237.78906249999997,129.91666666666666L237.7890625,132" style="fill: none;"/><defs><marker id="arrowhead14" viewBox="0 0 10 10" refX="9" refY="5" markerUnits="strokeWidth" markerWidth="8" markerHeight="6" orient="auto"><path d="M 0 0 L 10 5 L 0 10 z"/></marker></defs></g></g></g></g><path class="path" marker-end="url(#arrowhead15)" d="M274.451171875,0L274.451171875,1.6666666666666665C274.451171875,3.333333333333333,274.451171875,6.666666666666666,278.81217447916663,8.333333333333332C283.1731770833333,10,291.89518229166663,10,296.2561848958333,11.666666666666664C300.6171875,13.333333333333332,300.6171875,16.666666666666664,300.61718749999994,18.333333333333332L300.6171875,20" style="fill: none;"/></g></g><g class="node-container" transform="translate(281.951171875,390.5)"><g class="node state Task NotYetStarted"><rect class="shape" rx="5" ry="5" x="-56.25" y="-20.5" width="112.5" height="41"/><text class="label"><tspan xml:space="preserve" text-anchor="middle" alignment-baseline="central">CopyObject</tspan></text></g></g><g class="node-container" transform="translate(281.951171875,456.5)"><g class="node state Task NotYetStarted"><rect class="shape" rx="5" ry="5" x="-62.0859375" y="-20.5" width="124.171875" height="41"/><text class="label"><tspan xml:space="preserve" text-anchor="middle" alignment-baseline="central">DeleteObject</tspan></text></g></g></g><g class="edges"><g class="edge"><path class="path" marker-end="url(#arrowhead16)" d="M281.951171875,107L281.951171875,109.08333333333331C281.951171875,111.16666666666666,281.951171875,115.33333333333331,281.951171875,119.49999999999999C281.951171875,123.66666666666666,281.951171875,127.83333333333333,281.951171875,129.91666666666666L281.951171875,132" style="fill: none;"/><defs><marker id="arrowhead16" viewBox="0 0 10 10" refX="9" refY="5" markerUnits="strokeWidth" markerWidth="8" markerHeight="6" orient="auto"><path d="M 0 0 L 10 5 L 0 10 z"/></marker></defs></g><g class="edge"><path class="path" marker-end="url(#arrowhead17)" d="M281.951171875,50.328125L281.951171875,50.85677083333332C281.951171875,51.38541666666666,281.951171875,52.44270833333333,281.951171875,55.0546875C281.951171875,57.666666666666664,281.951171875,61.83333333333333,281.951171875,63.916666666666664L281.951171875,66" style="fill: none;"/><defs><marker id="arrowhead17" viewBox="0 0 10 10" refX="9" refY="5" markerUnits="strokeWidth" markerWidth="8" markerHeight="6" orient="auto"><path d="M 0 0 L 10 5 L 0 10 z"/></marker></defs></g><g class="edge"><path class="path" marker-end="url(#arrowhead18)" d="M281.951171875,345L281.951171875,347.0833333333333C281.951171875,349.16666666666663,281.951171875,353.3333333333333,281.951171875,357.5C281.951171875,361.66666666666663,281.951171875,365.8333333333333,281.951171875,367.9166666666667L281.951171875,370" style="fill: none;"/><defs><marker id="arrowhead18" viewBox="0 0 10 10" refX="9" refY="5" markerUnits="strokeWidth" markerWidth="8" markerHeight="6" orient="auto"><path d="M 0 0 L 10 5 L 0 10 z"/></marker></defs></g><g class="edge"><path class="path" marker-end="url(#arrowhead19)" d="M281.951171875,411L281.951171875,413.0833333333333C281.951171875,415.16666666666663,281.951171875,419.3333333333333,281.951171875,423.5C281.951171875,427.66666666666663,281.951171875,431.83333333333326,281.951171875,433.91666666666663L281.951171875,436" style="fill: none;"/><defs><marker id="arrowhead19" viewBox="0 0 10 10" refX="9" refY="5" markerUnits="strokeWidth" markerWidth="8" markerHeight="6" orient="auto"><path d="M 0 0 L 10 5 L 0 10 z"/></marker></defs></g><g class="edge"><path class="path" marker-end="url(#arrowhead20)" d="M281.951171875,477L281.951171875,479.0833333333333C281.951171875,481.16666666666663,281.951171875,485.3333333333333,281.951171875,488.71354166666663C281.951171875,492.09375,281.951171875,494.6875,281.951171875,495.98437499999994L281.951171875,497.28125" style="fill: none;"/><defs><marker id="arrowhead20" viewBox="0 0 10 10" refX="9" refY="5" markerUnits="strokeWidth" markerWidth="8" markerHeight="6" orient="auto"><path d="M 0 0 L 10 5 L 0 10 z"/></marker></defs></g></g></g><style xmlns="http://www.w3.org/1999/xhtml">.node &gt; .shape {stroke: #555555;stroke-width: 0.6px;fill: #FFFFFF;} path {stroke: #555;background-color: #555;stroke-width: 1px;} .node.state.NotYetStarted &gt; .shape,.node.state.Container &gt; .shape {stroke-dasharray: 5 2;} .node.state.Failed &gt; .shape,rect.legend.Failed {fill: #DE322F;} .node.state.CaughtError &gt; .shape,rect.legend.CaughtError {fill: #FFA500;} .node.state.Succeeded &gt; .shape,rect.legend.Succeeded {fill: #2BD62E;} .node.state.InProgress &gt; .shape,rect.legend.InProgress {fill: #53c9ed;} .node.state.Cancelled &gt; .shape,rect.legend.Cancelled {fill: #dddddd;} .node.anchor &gt; .shape {fill: #FFDA75;} .node.state.hovered:not(.selected):not(.NotYetStarted) &gt; .shape,.node.selected &gt; .shape {stroke: #555555;stroke-width: 2px;} .node.state.Container.Failed &gt; .shape {fill: #EE9592;} .node.state.Container.CaughtError &gt; .shape {fill: #FFD27F;} .node.state.Container.Succeeded &gt; .shape {fill: #91EA9A;} .node.state.Container.InProgress &gt; .shape {fill :#A9E4F7;} .node.state.Container.Cancelled &gt; .shape {fill: #EEEEEE;} marker {fill: #555555;} .node.anchor,.node.state.NotYetStarted {cursor: default;} .node.state {cursor: pointer;} tspan .label {font-weight: normal;font-size: 12px;text-shadow: none;} </style></svg>